0
SECTION
2
HEADER
9
$INSUNITS
70
4
9
$ACADVER
1
AC1014
9
$HANDSEED
5
FFFF
0
ENDSEC
0
SECTION
2
TABLES
0
TABLE
2
VPORT
5
8
100
AcDbSymbolTable
0
ENDTAB
0
TABLE
2
LTYPE
5
5
100
AcDbSymbolTable
0
LTYPE
5
14
100
AcDbSymbolTableRecord
100
AcDbLinetypeTableRecord
2
BYBLOCK
70
0
0
LTYPE
5
15
100
AcDbSymbolTableRecord
100
AcDbLinetypeTableRecord
2
BYLAYER
70
0
0
LTYPE
5
16
100
AcDbSymbolTableRecord
100
AcDbLinetypeTableRecord
2
DASHED
70
0
3
Dashed __ __ __ __ __ __ __ __ __ __ __ __ __ _
72
65
73
2
40
0.75
49
0.5
74
0
49
-0.25
74
0
0
ENDTAB
0
TABLE
2
LAYER
5
2
100
AcDbSymbolTable
70
3
0
LAYER
5
50
100
AcDbSymbolTableRecord
100
AcDbLayerTableRecord
2
1
70
0
62
7
6
DASHED
0
LAYER
5
51
100
AcDbSymbolTableRecord
100
AcDbLayerTableRecord
2
0
70
0
62
7
6
CONTINUOUS
0
ENDTAB
0
TABLE
2
STYLE
5
3
100
AcDbSymbolTable
70
1
0
STYLE
5
11
100
AcDbSymbolTableRecord
100
AcDbTextStyleTableRecord
2
STANDARD
70
0
0
ENDTAB
0
TABLE
2
VIEW
5
6
100
AcDbSymbolTable
70
0
0
ENDTAB
0
TABLE
2
UCS
5
7
100
AcDbSymbolTable
70
0
0
ENDTAB
0
TABLE
2
APPID
5
9
100
AcDbSymbolTable
70
2
0
APPID
5
12
100
AcDbSymbolTableRecord
100
AcDbRegAppTableRecord
2
ACAD
70
0
0
ENDTAB
0
TABLE
2
DIMSTYLE
5
A
100
AcDbSymbolTable
70
1
0
ENDTAB
0
TABLE
2
BLOCK_RECORD
5
1
100
AcDbSymbolTable
70
1
0
BLOCK_RECORD
5
1F
100
AcDbSymbolTableRecord
100
AcDbBlockTableRecord
2
*MODEL_SPACE
0
BLOCK_RECORD
5
1B
100
AcDbSymbolTableRecord
100
AcDbBlockTableRecord
2
*PAPER_SPACE
0
ENDTAB
0
ENDSEC
0
SECTION
2
BLOCKS
0
BLOCK
5
20
100
AcDbEntity
100
AcDbBlockBegin
2
*MODEL_SPACE
0
ENDBLK
5
21
100
AcDbEntity
100
AcDbBlockEnd
0
BLOCK
5
1C
100
AcDbEntity
100
AcDbBlockBegin
2
*PAPER_SPACE
0
ENDBLK
5
1D
100
AcDbEntity
100
AcDbBlockEnd
0
ENDSEC
0
SECTION
2
ENTITIES
0
LWPOLYLINE
5
100
100
AcDbEntity
8
0
100
AcDbPolyline
90
18
70
1
43
0.0
10
44.697443404329519
20
-0.99999995884639059
10
-45.302556595670325
20
-0.99999995884653115
10
-55.302556595670289
20
-10.999999958846569
10
-55.302556595670112
20
-51.999999958846523
10
-45.302556595670126
20
-51.999999958846502
10
-45.302556118833621
20
-35.999999362801624
42
-0.41421356237311857
10
-25.30255552278653
20
-15.999999958845788
10
-18.302019366784968
20
-15.999999958846411
42
-0.4142135623730952
10
-15.302019366784966
20
-18.999999958846391
10
-15.302019366784936
20
-30.873047666213939
42
1.0084995253299329
10
14.696906175444216
20
-30.873047666213896
10
14.696906175444211
20
-18.999999958846349
42
-0.4142135623730952
10
17.696906175444202
20
-15.999999958846358
10
24.697442331445764
20
-15.999999958846409
42
-0.41421356237311874
10
44.697442927492219
20
-35.999999362801482
10
44.697443404329462
20
-51.999999958846352
10
54.697443404329448
20
-51.99999995884636
10
54.697443404329498
20
-10.9999999588464
0
CIRCLE
5
101
100
AcDbEntity
8
0
100
AcDbCircle
10
49.697443404329469
20
-15.999999958846363
30
-2.6645352591003757e-14
40
2.5
210
1.7486012637846259e-15
220
-4.6180522337540924e-31
230
1
0
CIRCLE
5
102
100
AcDbEntity
8
0
100
AcDbCircle
10
49.697443404329462
20
-30.999999958846367
30
-2.6645352591003757e-14
40
2.5
210
1.7486012637846259e-15
220
-4.6180522337540924e-31
230
1
0
CIRCLE
5
103
100
AcDbEntity
8
0
100
AcDbCircle
10
37.697443404329519
20
-7.9999999588463844
30
-2.6645352591003757e-14
40
2.5000000000000009
210
1.7486012637846259e-15
220
-4.6180522337540924e-31
230
1
0
CIRCLE
5
104
100
AcDbEntity
8
0
100
AcDbCircle
10
49.697443404329462
20
-45.99999995884636
30
-2.6645352591003757e-14
40
2.5
210
1.7486012637846259e-15
220
-4.6180522337540924e-31
230
1
0
CIRCLE
5
105
100
AcDbEntity
8
0
100
AcDbCircle
10
-0.30255659567046389
20
-42.999999958846345
30
-3.1086244689504383e-14
40
1.4999999999999947
210
1.7486012637846259e-15
220
-4.6180522337540924e-31
230
1
0
CIRCLE
5
106
100
AcDbEntity
8
0
100
AcDbCircle
10
-10.694861441083482
20
-24.999999958846214
30
-3.1086244689504383e-14
40
1.4999999999999991
210
1.7486012637846259e-15
220
-4.6180522337540924e-31
230
1
0
CIRCLE
5
107
100
AcDbEntity
8
0
100
AcDbCircle
10
10.089748249743016
20
-24.99999995884648
30
-3.1086244689504383e-14
40
1.4999999999999991
210
1.7486012637846259e-15
220
-4.6180522337540924e-31
230
1
0
CIRCLE
5
108
100
AcDbEntity
8
0
100
AcDbCircle
10
-20.302556595670342
20
-7.999999958846427
30
-3.1086244689504383e-14
40
2.4999999999999991
210
1.7486012637846259e-15
220
-4.6180522337540924e-31
230
1
0
CIRCLE
5
109
100
AcDbEntity
8
0
100
AcDbCircle
10
19.697443404329558
20
-7.9999999588463684
30
-3.1086244689504383e-14
40
2.5
210
1.7486012637846259e-15
220
-4.6180522337540924e-31
230
1
0
CIRCLE
5
110
100
AcDbEntity
8
0
100
AcDbCircle
10
-0.30255659567036147
20
-30.999998751086835
30
-8.8817841970012523e-15
40
7.9999999999999982
210
1.7486012637846257e-15
220
-6.3664351568348781e-16
230
1
0
CIRCLE
5
111
100
AcDbEntity
8
0
100
AcDbCircle
10
-38.30255659567031
20
-7.9999999588465043
30
-3.1086244689504383e-14
40
2.5000000000000009
210
1.7486012637846259e-15
220
-4.6180522337540924e-31
230
1
0
CIRCLE
5
112
100
AcDbEntity
8
0
100
AcDbCircle
10
-50.302556595670147
20
-45.999999958846516
30
-3.1086244689504383e-14
40
2.5
210
1.7486012637846259e-15
220
-4.6180522337540924e-31
230
1
0
CIRCLE
5
113
100
AcDbEntity
8
0
100
AcDbCircle
10
-50.302556595670247
20
-15.999999958846518
30
-3.1086244689504383e-14
40
2.5
210
1.7486012637846259e-15
220
-4.6180522337540924e-31
230
1
0
CIRCLE
5
114
100
AcDbEntity
8
0
100
AcDbCircle
10
-50.302556595670197
20
-30.999999958846519
30
-3.1086244689504383e-14
40
2.5
210
1.7486012637846259e-15
220
-4.6180522337540924e-31
230
1
0
CIRCLE
5
115
100
AcDbEntity
8
0
100
AcDbCircle
10
49.697443404329469
20
-15.999999958846363
30
-4.4408920985006262e-15
40
2.4999999999999956
210
-2.7755575615632876e-17
220
2.7755575615632044e-17
230
1
0
CIRCLE
5
116
100
AcDbEntity
8
0
100
AcDbCircle
10
49.697443404329462
20
-30.999999958846367
30
-4.4408920985006262e-15
40
2.4999999999999956
210
-2.7755575615632876e-17
220
2.7755575615632044e-17
230
1
0
CIRCLE
5
117
100
AcDbEntity
8
0
100
AcDbCircle
10
37.697443404329519
20
-7.9999999588463844
30
-4.4408920985006262e-15
40
2.4999999999999964
210
-2.7755575615632876e-17
220
2.7755575615632044e-17
230
1
0
CIRCLE
5
118
100
AcDbEntity
8
0
100
AcDbCircle
10
49.697443404329462
20
-45.99999995884636
30
-4.4408920985006262e-15
40
2.4999999999999956
210
-2.7755575615632876e-17
220
2.7755575615632044e-17
230
1
0
CIRCLE
5
119
100
AcDbEntity
8
0
100
AcDbCircle
10
-0.30255659567046378
20
-42.999999958846345
30
-4.4408920985006262e-15
40
1.499999999999992
210
-2.7755575615632876e-17
220
2.7755575615632044e-17
230
1
0
CIRCLE
5
120
100
AcDbEntity
8
0
100
AcDbCircle
10
-10.694861441083482
20
-24.999999958846214
30
-4.4408920985006262e-15
40
1.4999999999999964
210
-2.7755575615632876e-17
220
2.7755575615632044e-17
230
1
0
CIRCLE
5
121
100
AcDbEntity
8
0
100
AcDbCircle
10
10.089748249743016
20
-24.99999995884648
30
-4.4408920985006262e-15
40
1.4999999999999964
210
-2.7755575615632876e-17
220
2.7755575615632044e-17
230
1
0
CIRCLE
5
122
100
AcDbEntity
8
0
100
AcDbCircle
10
-20.302556595670342
20
-7.999999958846427
30
-4.4408920985006262e-15
40
2.4999999999999947
210
-2.7755575615632876e-17
220
2.7755575615632044e-17
230
1
0
CIRCLE
5
123
100
AcDbEntity
8
0
100
AcDbCircle
10
19.697443404329558
20
-7.9999999588463684
30
-4.4408920985006262e-15
40
2.4999999999999956
210
-2.7755575615632876e-17
220
2.7755575615632044e-17
230
1
0
CIRCLE
5
124
100
AcDbEntity
8
0
100
AcDbCircle
10
-0.30255659567030924
20
-30.999999958846352
30
-4.4408920985006262e-15
40
7.999999999999984
210
-2.7755575615632876e-17
220
2.7755575615632044e-17
230
1
0
LWPOLYLINE
5
125
100
AcDbEntity
8
0
100
AcDbPolyline
90
18
70
1
43
0.0
10
44.697443404329519
20
-0.99999995884639059
10
-45.302556595670325
20
-0.99999995884653126
10
-55.302556595670289
20
-10.999999958846571
10
-55.302556595670104
20
-51.99999995884653
10
-45.302556595670126
20
-51.999999958846495
10
-45.302556118833586
20
-35.999999362801624
42
-0.41421356237311974
10
-25.30255552278653
20
-15.999999958845791
10
-18.302019366784968
20
-15.999999958846406
42
-0.41421356237309392
10
-15.302019366784968
20
-18.999999958846391
10
-15.302019366784933
20
-30.873047666213935
42
1.0084995253299329
10
14.696906175444218
20
-30.873047666213949
10
14.696906175444218
20
-18.999999958846349
42
-0.41421356237309698
10
17.696906175444202
20
-15.999999958846358
10
24.697442331445771
20
-15.999999958846377
42
-0.41421356237311713
10
44.697442927492219
20
-35.999999362801482
10
44.697443404329469
20
-51.99999995884636
10
54.697443404329448
20
-51.999999958846352
10
54.697443404329491
20
-10.9999999588464
0
CIRCLE
5
126
100
AcDbEntity
8
0
100
AcDbCircle
10
-38.30255659567031
20
-7.9999999588465043
30
-4.4408920985006262e-15
40
2.4999999999999964
210
-2.7755575615632876e-17
220
2.7755575615632044e-17
230
1
0
CIRCLE
5
127
100
AcDbEntity
8
0
100
AcDbCircle
10
-50.302556595670147
20
-45.999999958846516
30
-4.4408920985006262e-15
40
2.4999999999999956
210
-2.7755575615632876e-17
220
2.7755575615632044e-17
230
1
0
CIRCLE
5
128
100
AcDbEntity
8
0
100
AcDbCircle
10
-50.302556595670247
20
-15.999999958846518
30
-4.4408920985006262e-15
40
2.4999999999999956
210
-2.7755575615632876e-17
220
2.7755575615632044e-17
230
1
0
CIRCLE
5
129
100
AcDbEntity
8
0
100
AcDbCircle
10
-50.302556595670197
20
-30.999999958846519
30
-4.4408920985006262e-15
40
2.4999999999999956
210
-2.7755575615632876e-17
220
2.7755575615632044e-17
230
1
0
ENDSEC
0
SECTION
2
OBJECTS
0
DICTIONARY
5
C
100
AcDbDictionary
3
ACAD_GROUP
350
D
3
ACAD_MLINESTYLE
350
17
0
DICTIONARY
5
D
100
AcDbDictionary
0
DICTIONARY
5
1A
330
C
100
AcDbDictionary
0
DICTIONARY
5
17
100
AcDbDictionary
0
ENDSEC
0
EOF
